<svg width="319" height="316" viewBox="0 0 319 316" fill="none" xmlns="http://www.w3.org/2000/svg">
<line y1="243" x2="319" y2="243" stroke="#826586" stroke-width="2"/>
<line x1="-3.43796e-09" y1="214" x2="319" y2="214" stroke="#826586" stroke-width="2"/>
<line x1="-3.43796e-09" y1="183" x2="319" y2="183" stroke="#826586" stroke-width="2"/>
<line x1="-3.43796e-09" y1="151" x2="319" y2="151" stroke="#826586" stroke-width="2"/>
<line x1="-3.43796e-09" y1="122" x2="319" y2="122" stroke="#826586" stroke-width="2"/>
<line x1="-3.43796e-09" y1="93" x2="319" y2="93" stroke="#826586" stroke-width="2"/>
<line x1="-3.43796e-09" y1="62" x2="319" y2="62" stroke="#826586" stroke-width="2"/>
<line x1="-3.43796e-09" y1="30" x2="319" y2="30" stroke="#826586" stroke-width="2"/>
<line x1="29" y1="3.38886e-08" x2="29" y2="316" stroke="#826586" stroke-width="2"/>
<line x1="58" y1="3.38886e-08" x2="58" y2="316" stroke="#826586" stroke-width="2"/>
<line x1="89" y1="3.38886e-08" x2="89" y2="316" stroke="#826586" stroke-width="2"/>
<line x1="121" y1="3.38886e-08" x2="121" y2="316" stroke="#826586" stroke-width="2"/>
<line x1="150" y1="3.38886e-08" x2="150" y2="316" stroke="#826586" stroke-width="2"/>
<line x1="179" y1="3.38886e-08" x2="179" y2="316" stroke="#826586" stroke-width="2"/>
<line x1="210" y1="3.38886e-08" x2="210" y2="316" stroke="#826586" stroke-width="2"/>
<line x1="242" y1="3.38886e-08" x2="242" y2="316" stroke="#826586" stroke-width="2"/>
<rect x="279" y="246" width="226" height="40" transform="rotate(-90 279 246)" fill="url(#paint0_linear_131_982)"/>
<rect x="18" y="276" width="232" height="40" fill="url(#paint1_linear_131_982)"/>
<defs>
<linearGradient id="paint0_linear_131_982" x1="392" y1="246" x2="392" y2="286" gradientUnits="userSpaceOnUse">
<stop stop-color="#FFA800" stop-opacity="0"/>
<stop offset="0.905" stop-color="#FFA800"/>
</linearGradient>
<linearGradient id="paint1_linear_131_982" x1="134" y1="276" x2="134" y2="316" gradientUnits="userSpaceOnUse">
<stop stop-color="#FFA800" stop-opacity="0"/>
<stop offset="0.905" stop-color="#FFA800"/>
</linearGradient>
</defs>
</svg>
