<svg width="35" height="34" viewBox="0 0 35 34" fill="none" xmlns="http://www.w3.org/2000/svg">
<path d="M17.5 1.08182L19.6349 9.5304C19.9402 10.7389 21.2646 11.3767 22.3998 10.8619L30.3363 7.26343L25.062 14.2001C24.3075 15.1924 24.6346 16.6254 25.7448 17.1921L33.5065 21.1534L24.7947 21.3547C23.5486 21.3835 22.6321 22.5328 22.8813 23.7541L24.6236 32.2923L19.0344 25.6066C18.235 24.6503 16.765 24.6503 15.9656 25.6066L10.3764 32.2923L12.1187 23.7541C12.3679 22.5328 11.4514 21.3835 10.2053 21.3547L1.49346 21.1534L9.25516 17.1921C10.3654 16.6254 10.6925 15.1924 9.93805 14.2001L4.66375 7.26344L12.6002 10.8619C13.7354 11.3767 15.0598 10.7389 15.3651 9.5304L17.5 1.08182Z" stroke="#FFA800" stroke-width="2"/>
</svg>
