<svg width="41" height="41" viewBox="0 0 41 41" fill="none" xmlns="http://www.w3.org/2000/svg">
<path d="M20.5 4.08182L22.6349 12.5304C22.9402 13.7389 24.2646 14.3767 25.3998 13.8619L33.3363 10.2634L28.062 17.2001C27.3075 18.1924 27.6346 19.6254 28.7448 20.1921L36.5065 24.1534L27.7947 24.3547C26.5486 24.3835 25.6321 25.5328 25.8813 26.7541L27.6236 35.2923L22.0344 28.6066C21.235 27.6503 19.765 27.6503 18.9656 28.6066L13.3764 35.2923L15.1187 26.7541C15.3679 25.5328 14.4514 24.3835 13.2053 24.3547L4.49346 24.1534L12.2552 20.1921C13.3654 19.6254 13.6925 18.1924 12.9381 17.2001L7.66375 10.2634L15.6002 13.8619C16.7354 14.3767 18.0598 13.7389 18.3651 12.5304L20.5 4.08182Z" stroke="#826586" stroke-width="2"/>
<path d="M20.5 27.5V6.5L17.5 14L8.5 11L14 19.5L5 24L14.5 25V33.5L20.5 27.5Z" fill="#826586"/>
</svg>
