<svg width="35" height="34" viewBox="0 0 35 34" fill="none" xmlns="http://www.w3.org/2000/svg">
<path d="M16.5305 0.836835C16.7849 -0.169847 18.2151 -0.16985 18.4695 0.836832L20.6044 9.28541C20.7571 9.88965 21.4193 10.2085 21.9869 9.95118L29.9233 6.35268C30.869 5.92391 31.7607 7.04216 31.1323 7.86869L25.858 14.8054C25.4808 15.3015 25.6443 16.0181 26.1994 16.3014L33.9611 20.2627C34.886 20.7347 34.5677 22.1291 33.5296 22.1531L24.8178 22.3545C24.1948 22.3689 23.7365 22.9435 23.8611 23.5541L25.6034 32.0923C25.811 33.1097 24.5223 33.7303 23.8564 32.9337L18.2672 26.248C17.8675 25.7699 17.1325 25.7699 16.7328 26.248L11.1436 32.9337C10.4777 33.7303 9.18901 33.1097 9.39661 32.0923L11.1389 23.5541C11.2635 22.9435 10.8052 22.3689 10.1822 22.3545L1.47035 22.1531C0.432308 22.1291 0.114035 20.7347 1.03887 20.2627L8.80058 16.3014C9.35569 16.0181 9.51923 15.3015 9.14202 14.8054L3.86772 7.86869C3.23927 7.04216 4.13104 5.9239 5.0767 6.35268L13.0131 9.95118C13.5807 10.2085 14.2429 9.88965 14.3956 9.28541L16.5305 0.836835Z" fill="#F9F8F1"/>
</svg>
