<svg width="171" height="60" viewBox="0 0 171 60" fill="none" xmlns="http://www.w3.org/2000/svg">
<mask id="path-1-outside-1_170_1011" maskUnits="userSpaceOnUse" x="-9" y="-9" width="194" height="78" fill="black">
<rect fill="white" x="-9" y="-9" width="194" height="78"/>
<path d="M25.68 60V16.72H2.98023e-08V0.479999H74.08V16.72H48.4V60H25.68ZM142.916 60H112.756L82.6756 0.479999H108.436L128.436 42L147.236 0.479999H170.836L142.916 60Z"/>
</mask>
<path d="M25.68 60H16.68V69H25.68V60ZM25.68 16.72H34.68V7.72H25.68V16.72ZM2.98023e-08 16.72H-9V25.72H2.98023e-08V16.72ZM2.98023e-08 0.479999V-8.52H-9V0.479999H2.98023e-08ZM74.08 0.479999H83.08V-8.52H74.08V0.479999ZM74.08 16.72V25.72H83.08V16.72H74.08ZM48.4 16.72V7.72H39.4V16.72H48.4ZM48.4 60V69H57.4V60H48.4ZM34.68 60V16.72H16.68V60H34.68ZM25.68 7.72H2.98023e-08V25.72H25.68V7.72ZM9 16.72V0.479999H-9V16.72H9ZM2.98023e-08 9.48H74.08V-8.52H2.98023e-08V9.48ZM65.08 0.479999V16.72H83.08V0.479999H65.08ZM74.08 7.72H48.4V25.72H74.08V7.72ZM39.4 16.72V60H57.4V16.72H39.4ZM48.4 51H25.68V69H48.4V51ZM142.916 60V69H148.635L151.064 63.8222L142.916 60ZM112.756 60L104.723 64.0594L107.22 69H112.756V60ZM82.6756 0.479999V-8.52H68.0432L74.6431 4.53943L82.6756 0.479999ZM108.436 0.479999L116.544 -3.42575L114.09 -8.52H108.436V0.479999ZM128.436 42L120.327 45.9057L128.688 63.2622L136.634 45.7123L128.436 42ZM147.236 0.479999V-8.52H141.431L139.037 -3.23232L147.236 0.479999ZM170.836 0.479999L178.984 4.30215L184.998 -8.52H170.836V0.479999ZM142.916 51H112.756V69H142.916V51ZM120.788 55.9406L90.7081 -3.57944L74.6431 4.53943L104.723 64.0594L120.788 55.9406ZM82.6756 9.48H108.436V-8.52H82.6756V9.48ZM100.327 4.38575L120.327 45.9057L136.544 38.0942L116.544 -3.42575L100.327 4.38575ZM136.634 45.7123L155.434 4.19232L139.037 -3.23232L120.237 38.2877L136.634 45.7123ZM147.236 9.48H170.836V-8.52H147.236V9.48ZM162.688 -3.34215L134.768 56.1778L151.064 63.8222L178.984 4.30215L162.688 -3.34215Z" fill="#222222" mask="url(#path-1-outside-1_170_1011)"/>
</svg>
